<svg width="58" height="83" viewBox="0 0 58 83" fill="none" xmlns="http://www.w3.org/2000/svg">
<path d="M17 19C14.1667 13.5 12 2.5 26 2.5C40 2.5 38.8333 13.5 36.5 19" stroke="#EBB22D" stroke-width="5" stroke-linecap="round"/>
<rect y="19" width="58" height="64" rx="5" fill="#EBB22D"/>
<path d="M29.8866 74.7423C22.4639 74.7423 15.7835 72.433 9.84536 67.8144L14.5464 60.268C19.8247 64.3093 25.0206 66.3299 30.134 66.3299C32.2784 66.3299 33.9691 65.8351 35.2062 64.8454C36.5258 63.7732 37.1856 62.4536 37.1856 60.8866C37.1856 58.5773 34.134 56.5155 28.0309 54.701C27.866 54.6186 27.6598 54.5361 27.4124 54.4536C27.2474 54.3711 27.1237 54.3299 27.0412 54.3299C17.4742 51.7732 12.6907 47.4433 12.6907 41.3402C12.6907 37.0515 14.299 33.6289 17.5155 31.0722C20.8144 28.5155 25.1443 27.2371 30.5052 27.2371C35.7835 27.2371 40.8144 28.8041 45.5979 31.9381L42.0103 39.1134C38.299 36.6392 34.2165 35.4021 29.7629 35.4021C24.567 35.4021 21.9691 37.0515 21.9691 40.3505C21.9691 41.7526 22.4639 42.7835 23.4536 43.4433C24.5258 44.0206 26.2577 44.5979 28.6495 45.1753C32.2784 46.1649 35.3299 47.1546 37.8041 48.1443C39.4536 48.8866 40.8969 49.6701 42.134 50.4948C45.268 52.6392 46.8351 55.8969 46.8351 60.268C46.8351 64.5567 45.2268 68.0619 42.0103 70.7835C38.8763 73.4227 34.8351 74.7423 29.8866 74.7423Z" fill="white"/>
</svg>
